<svg height="512pt" viewBox="0 0 512.02679 512" width="512pt" xmlns="http://www.w3.org/2000/svg"><path d="m34.160156 511.992188c9.054688.007812 17.742188-3.585938 24.148438-9.984376l23.808594-23.808593-48.296876-48.296875-23.808593 23.804687c-9.773438 9.765625-12.699219 24.453125-7.410157 37.214844 5.285157 12.765625 17.746094 21.082031 31.558594 21.070313zm0 0"/><path d="m82.117188 453.964844 12.117187 12.117187 34.816406-34.816406-48.296875-48.296875-34.816406 34.816406 12.03125 12.117188zm0 0"/><path d="m432.15625 7.5c-10.027344-9.980469-26.238281-9.980469-36.265625 0l-76.375 76.460938c-6.523437 6.507812-10.773437 14.945312-12.117187 24.0625l-1.367188 9.898437c-2.242188 15.9375 3.09375 32.003906 14.421875 43.433594l9.046875 9.046875-175.445312 175.53125c-13.390626-7.949219-30.460938-5.804688-41.472657 5.203125l-19.710937 19.714843 48.296875 48.296876 19.714843-19.710938c11.007813-11.011719 13.148438-28.082031 5.203126-41.472656l175.53125-175.445313 9.046874 9.046875c9.65625 9.546875 22.683594 14.910156 36.265626 14.929688 2.398437 0 4.792968-.171875 7.167968-.511719l9.898438-1.363281c9.140625-1.34375 17.609375-5.589844 24.148437-12.117188l76.375-76.375c10.011719-10.015625 10.011719-26.25 0-36.265625zm-90.539062 114.601562c-3.308594-3.328124-3.308594-8.703124 0-12.03125l66.390624-66.386718c3.328126-3.308594 8.703126-3.308594 12.03125 0 3.328126 3.351562 3.328126 8.761718 0 12.117187l-66.390624 66.300781c-1.574219 1.636719-3.746094 2.5625-6.015626 2.5625-2.269531 0-4.441406-.925781-6.015624-2.5625zm6.398437 42.667969 14.679687 14.675781zm29.78125-18.515625c-1.570313 1.636719-3.742187 2.558594-6.015625 2.558594-2.269531 0-4.441406-.921875-6.015625-2.558594-3.308594-3.328125-3.308594-8.703125 0-12.035156l66.390625-66.386719c2.085938-2.4375 5.359375-3.496093 8.476562-2.746093 3.117188.75 5.550782 3.183593 6.300782 6.300781.75 3.117187-.308594 6.390625-2.746094 8.476562zm90.539063-42.242187-66.386719 66.390625c-3.328125 3.308594-8.703125 3.308594-12.035157 0-3.308593-3.328125-3.308593-8.703125 0-12.03125l66.304688-66.390625c3.355469-3.328125 8.765625-3.328125 12.117188 0 3.308593 3.328125 3.308593 8.703125 0 12.03125zm0 0"/></svg>